<svg version="1.1" id="Layer_1" xmlns="http://www.w3.org/2000/svg" xmlns:xlink="http://www.w3.org/1999/xlink" x="0px" y="0px" viewBox="0 0 1000 114" style="height: 20px;position: absolute;bottom: 0;left: 0;" xml:space="preserve" data-position="bottom" data-ct="37868" decoration-type="Geometric Waves" class="svg-shape-bottom" width="100%" preserveAspectRatio="xMidYMin slice" data-css="tve-u-16981e5f5d8">
<style type="text/css">
	.p16981e5f5c8{opacity:0.95;enable-background:new    ;}
	.p16981e5f5c9{opacity:0.9;enable-background:new    ;}
	.p16981e5f5ca{opacity:0.85;enable-background:new    ;}
	.p16981e5f5cb{opacity:0.8;enable-background:new    ;}
	.p16981e5f5cc{opacity:0.75;enable-background:new    ;}
	.p16981e5f5cd{opacity:0.7;enable-background:new    ;}
	.p16981e5f5ce{opacity:0.65;enable-background:new    ;}
	.p16981e5f5cf{opacity:0.6;enable-background:new    ;}
	.p16981e5f5d0{opacity:0.55;enable-background:new    ;}
	.p16981e5f5d1{opacity:0.5;enable-background:new    ;}
	.p16981e5f5d2{opacity:0.4;enable-background:new    ;}
	.p16981e5f5d3{opacity:0.3;enable-background:new    ;}
	.p16981e5f5d4{opacity:0.2;enable-background:new    ;}
</style>
    <polygon class="p16981e5f5c7" points="999.4,103.9 973.4,112.6 928.7,97.6 928.6,97.6 883.9,112.6 839.1,97.6 839.1,97.6 794.3,112.6
	749.6,97.6 749.5,97.6 704.7,112.6 660,97.6 660,97.6 615.2,112.6 570.5,97.6 570.4,97.6 525.6,112.6 499.7,103.9 499.7,103.9
	473.8,112.6 429,97.6 429,97.6 384.2,112.6 339.5,97.6 339.4,97.6 294.6,112.6 249.9,97.6 249.9,97.6 205.1,112.6 160.4,97.6
	160.3,97.6 115.5,112.6 70.8,97.6 70.7,97.6 26,112.6 0,103.9 -0.3,104.2 25.9,113 25.9,113 70.7,98 115.5,113 115.5,113 160.3,98
	205,113 205.1,113 249.9,98 294.6,113 294.6,113 339.4,98 384.1,113 384.2,113 429,98 473.7,113 473.8,113 499.7,104.3 525.6,113
	525.6,113 570.4,98 615.1,113 615.2,113 660,98 704.7,113 704.7,113 749.5,98 794.2,113 794.3,113 839.1,98 883.8,113 883.9,113
	928.6,98 973.4,113 973.4,113 999.7,104.2 "></polygon>
    <polygon class="p16981e5f5c8" points="999.2,96.2 973.3,104.9 928.5,89.9 928.5,89.9 883.7,104.9 839,89.9 838.9,89.9 794.1,104.9
	749.4,89.9 749.4,89.9 704.6,104.9 659.9,89.9 659.8,89.9 615,104.9 570.3,89.9 570.2,89.9 525.5,104.9 499.6,96.2 499.5,96.2
	473.6,104.9 428.9,89.9 428.8,89.9 384,104.9 339.3,89.9 339.3,89.9 294.5,104.9 249.8,89.9 249.7,89.9 204.9,104.9 160.2,89.9
	160.1,89.9 115.4,104.9 70.6,89.9 70.6,89.9 25.8,104.9 -0.1,96.2 -0.4,96.5 25.7,105.3 25.8,105.3 70.6,90.3 115.3,105.3
	115.4,105.3 160.1,90.3 204.9,105.3 204.9,105.3 249.7,90.3 294.4,105.3 294.5,105.3 339.3,90.3 384,105.3 384,105.3 428.8,90.3
	473.5,105.3 473.6,105.3 499.5,96.6 525.4,105.3 525.5,105.3 570.2,90.3 615,105.3 615,105.3 659.8,90.3 704.5,105.3 704.6,105.3
	749.4,90.3 794.1,105.3 794.1,105.3 838.9,90.3 883.6,105.3 883.7,105.3 928.5,90.3 973.2,105.3 973.3,105.3 999.5,96.5 "></polygon>
    <polygon class="p16981e5f5c9" points="999.4,88.9 973.4,97.5 928.7,82.6 928.6,82.6 883.9,97.5 839.1,82.6 839.1,82.6 794.3,97.5 749.6,82.6
	749.5,82.6 704.7,97.5 660,82.6 660,82.6 615.2,97.5 570.5,82.6 570.4,82.6 525.6,97.5 499.7,88.9 499.7,88.9 473.8,97.5 429,82.6
	429,82.5 384.2,97.5 339.5,82.6 339.4,82.5 294.6,97.5 249.9,82.6 249.9,82.5 205.1,97.5 160.4,82.6 160.3,82.5 115.5,97.5
	70.8,82.6 70.7,82.5 26,97.5 0,88.9 -0.3,89.2 25.9,97.9 25.9,98 70.7,82.9 115.5,97.9 115.5,98 160.3,82.9 205,97.9 205.1,98
	249.9,82.9 294.6,97.9 294.6,98 339.4,82.9 384.1,97.9 384.2,98 429,82.9 473.7,97.9 473.8,98 499.7,89.3 525.6,97.9 525.6,98
	570.4,83 615.1,97.9 615.2,98 660,83 704.7,97.9 704.7,98 749.5,83 794.2,97.9 794.3,98 839.1,83 883.8,97.9 883.9,98 928.6,83
	973.4,97.9 973.4,98 999.7,89.2 "></polygon>
    <polygon class="p16981e5f5ca" points="999.4,81.5 973.4,90.2 928.7,75.2 928.6,75.2 883.9,90.2 839.1,75.2 839.1,75.2 794.3,90.2 749.6,75.2
	749.5,75.2 704.7,90.2 660,75.2 660,75.2 615.2,90.2 570.5,75.2 570.4,75.2 525.6,90.2 499.7,81.5 499.7,81.5 473.8,90.2 429,75.2
	429,75.2 384.2,90.2 339.5,75.2 339.4,75.2 294.6,90.2 249.9,75.2 249.9,75.2 205.1,90.2 160.4,75.2 160.3,75.2 115.5,90.2
	70.8,75.2 70.7,75.2 26,90.2 0,81.5 -0.3,81.8 25.9,90.6 25.9,90.6 70.7,75.6 115.5,90.6 115.5,90.6 160.3,75.6 205,90.6
	205.1,90.6 249.9,75.6 294.6,90.6 294.6,90.6 339.4,75.6 384.1,90.6 384.2,90.6 429,75.6 473.7,90.6 473.8,90.6 499.7,81.9
	525.6,90.6 525.6,90.6 570.4,75.6 615.1,90.6 615.2,90.6 660,75.6 704.7,90.6 704.7,90.6 749.5,75.6 794.2,90.6 794.3,90.6
	839.1,75.6 883.8,90.6 883.9,90.6 928.6,75.6 973.4,90.6 973.4,90.6 999.7,81.8 "></polygon>
    <polygon class="p16981e5f5cb" points="999.7,73.8 973.7,82.5 929,67.5 929,67.5 884.2,82.5 839.5,67.5 839.4,67.5 794.6,82.5 749.9,67.5
	749.8,67.5 705.1,82.5 660.3,67.5 660.3,67.5 615.5,82.5 570.8,67.5 570.7,67.5 525.9,82.5 500,73.8 500,73.8 474.1,82.5
	429.4,67.5 429.3,67.5 384.5,82.5 339.8,67.5 339.7,67.5 295,82.5 250.2,67.5 250.2,67.5 205.4,82.5 160.7,67.5 160.6,67.5
	115.8,82.5 71.1,67.5 71,67.5 26.3,82.5 0.3,73.8 0,74.1 26.2,82.9 26.3,82.9 71,67.9 115.8,82.9 115.8,82.9 160.6,67.9 205.3,82.9
	205.4,82.9 250.2,67.9 294.9,82.9 295,82.9 339.7,67.9 384.5,82.9 384.5,82.9 429.3,67.9 474,82.9 474.1,82.9 500,74.2 525.9,82.9
	525.9,82.9 570.7,67.9 615.4,82.9 615.5,82.9 660.3,67.9 705,82.9 705.1,82.9 749.8,67.9 794.6,82.9 794.6,82.9 839.4,67.9
	884.1,82.9 884.2,82.9 929,67.9 973.7,82.9 973.7,82.9 1000,74.1 "></polygon>
    <polygon class="p16981e5f5cc" points="999.4,66.2 973.4,74.8 928.7,59.9 928.6,59.8 883.9,74.8 839.1,59.9 839.1,59.8 794.3,74.8 749.6,59.9
	749.5,59.8 704.7,74.8 660,59.9 660,59.8 615.2,74.8 570.5,59.9 570.4,59.8 525.6,74.8 499.7,66.2 499.7,66.1 473.8,74.8 429,59.8
	429,59.8 384.2,74.8 339.5,59.8 339.4,59.8 294.6,74.8 249.9,59.8 249.9,59.8 205.1,74.8 160.4,59.8 160.3,59.8 115.5,74.8
	70.8,59.8 70.7,59.8 26,74.8 0,66.1 -0.3,66.4 25.9,75.2 25.9,75.2 70.7,60.2 115.5,75.2 115.5,75.2 160.3,60.2 205,75.2
	205.1,75.2 249.9,60.2 294.6,75.2 294.6,75.2 339.4,60.2 384.1,75.2 384.2,75.2 429,60.2 473.7,75.2 473.8,75.2 499.7,66.6
	525.6,75.2 525.6,75.2 570.4,60.2 615.1,75.2 615.2,75.2 660,60.2 704.7,75.2 704.7,75.2 749.5,60.2 794.2,75.2 794.3,75.2
	839.1,60.2 883.8,75.2 883.9,75.2 928.6,60.2 973.4,75.2 973.4,75.2 999.7,66.5 "></polygon>
    <polygon class="p16981e5f5cd" points="999.4,59.1 973.4,67.8 928.7,52.8 928.6,52.8 883.9,67.8 839.1,52.8 839.1,52.8 794.3,67.8 749.6,52.8
	749.5,52.8 704.7,67.8 660,52.8 660,52.8 615.2,67.8 570.5,52.8 570.4,52.8 525.6,67.8 499.7,59.1 499.7,59.1 473.8,67.8 429,52.8
	429,52.8 384.2,67.8 339.5,52.8 339.4,52.8 294.6,67.8 249.9,52.8 249.9,52.8 205.1,67.8 160.4,52.8 160.3,52.8 115.5,67.8
	70.8,52.8 70.7,52.8 26,67.8 0,59.1 -0.3,59.4 25.9,68.2 25.9,68.2 70.7,53.2 115.5,68.2 115.5,68.2 160.3,53.2 205,68.2
	205.1,68.2 249.9,53.2 294.6,68.2 294.6,68.2 339.4,53.2 384.1,68.2 384.2,68.2 429,53.2 473.7,68.2 473.8,68.2 499.7,59.5
	525.6,68.2 525.6,68.2 570.4,53.2 615.1,68.2 615.2,68.2 660,53.2 704.7,68.2 704.7,68.2 749.5,53.2 794.2,68.2 794.3,68.2
	839.1,53.2 883.8,68.2 883.9,68.2 928.6,53.2 973.4,68.2 973.4,68.2 999.7,59.4 "></polygon>
    <polygon class="p16981e5f5ce" points="999.4,51.8 973.4,60.4 928.7,45.5 928.6,45.4 883.9,60.4 839.1,45.5 839.1,45.4 794.3,60.4 749.6,45.5
	749.5,45.4 704.7,60.4 660,45.5 660,45.4 615.2,60.4 570.5,45.5 570.4,45.4 525.6,60.4 499.7,51.8 499.7,51.7 473.8,60.4 429,45.4
	429,45.4 384.2,60.4 339.5,45.4 339.4,45.4 294.6,60.4 249.9,45.4 249.9,45.4 205.1,60.4 160.4,45.4 160.3,45.4 115.5,60.4
	70.8,45.4 70.7,45.4 26,60.4 0,51.7 -0.3,52 25.9,60.8 25.9,60.8 70.7,45.8 115.5,60.8 115.5,60.8 160.3,45.8 205,60.8 205.1,60.8
	249.9,45.8 294.6,60.8 294.6,60.8 339.4,45.8 384.1,60.8 384.2,60.8 429,45.8 473.7,60.8 473.8,60.8 499.7,52.2 525.6,60.8
	525.6,60.8 570.4,45.8 615.1,60.8 615.2,60.8 660,45.8 704.7,60.8 704.7,60.8 749.5,45.8 794.2,60.8 794.3,60.8 839.1,45.8
	883.8,60.8 883.9,60.8 928.6,45.8 973.4,60.8 973.4,60.8 999.7,52.1 "></polygon>
    <polygon class="p16981e5f5cf" points="999.4,43.8 973.4,52.4 928.7,37.5 928.6,37.4 883.9,52.4 839.1,37.5 839.1,37.4 794.3,52.4 749.6,37.5
	749.5,37.4 704.7,52.4 660,37.5 660,37.4 615.2,52.4 570.5,37.5 570.4,37.4 525.6,52.4 499.7,43.8 499.7,43.8 473.8,52.4 429,37.5
	429,37.4 384.2,52.4 339.5,37.5 339.4,37.4 294.6,52.4 249.9,37.5 249.9,37.4 205.1,52.4 160.4,37.5 160.3,37.4 115.5,52.4
	70.8,37.5 70.7,37.4 26,52.4 0,43.8 -0.3,44.1 25.9,52.8 25.9,52.8 70.7,37.8 115.5,52.8 115.5,52.8 160.3,37.8 205,52.8
	205.1,52.8 249.9,37.8 294.6,52.8 294.6,52.8 339.4,37.8 384.1,52.8 384.2,52.8 429,37.8 473.7,52.8 473.8,52.8 499.7,44.2
	525.6,52.8 525.6,52.8 570.4,37.8 615.1,52.8 615.2,52.8 660,37.8 704.7,52.8 704.7,52.8 749.5,37.8 794.2,52.8 794.3,52.8
	839.1,37.8 883.8,52.8 883.9,52.8 928.6,37.8 973.4,52.8 973.4,52.8 999.7,44.1 "></polygon>
    <polygon class="p16981e5f5d0" points="999.4,36.9 973.4,45.6 928.7,30.6 928.6,30.6 883.9,45.6 839.1,30.6 839.1,30.6 794.3,45.6 749.6,30.6
	749.5,30.6 704.7,45.6 660,30.6 660,30.6 615.2,45.6 570.5,30.6 570.4,30.6 525.6,45.6 499.7,36.9 499.7,36.9 473.8,45.6 429,30.6
	429,30.6 384.2,45.6 339.5,30.6 339.4,30.6 294.6,45.6 249.9,30.6 249.9,30.6 205.1,45.6 160.4,30.6 160.3,30.6 115.5,45.6
	70.8,30.6 70.7,30.6 26,45.6 0,36.9 -0.3,37.2 25.9,45.9 25.9,46 70.7,31 115.5,45.9 115.5,46 160.3,31 205,45.9 205.1,46 249.9,31
	294.6,45.9 294.6,46 339.4,31 384.1,45.9 384.2,46 429,31 473.7,45.9 473.8,46 499.7,37.3 525.6,46 525.6,46 570.4,31 615.1,46
	615.2,46 660,31 704.7,46 704.7,46 749.5,31 794.2,46 794.3,46 839.1,31 883.8,46 883.9,46 928.6,31 973.4,46 973.4,46 999.7,37.2
	"></polygon>
    <polygon class="p16981e5f5d1" points="999.5,29.4 973.6,38 928.9,23.1 928.8,23 884,38 839.3,23.1 839.2,23 794.5,38 749.7,23.1 749.7,23
	704.9,38 660.2,23.1 660.1,23 615.3,38 570.6,23.1 570.6,23 525.8,38 499.9,29.4 499.9,29.4 473.9,38 429.2,23.1 429.1,23 384.4,38
	339.6,23.1 339.6,23 294.8,38 250.1,23.1 250,23 205.2,38 160.5,23.1 160.5,23 115.7,38 71,23.1 70.9,23 26.1,38 0.2,29.4
	-0.1,29.7 26,38.4 26.1,38.4 70.9,23.4 115.6,38.4 115.7,38.4 160.5,23.4 205.2,38.4 205.2,38.4 250,23.4 294.7,38.4 294.8,38.4
	339.6,23.4 384.3,38.4 384.4,38.4 429.1,23.4 473.9,38.4 473.9,38.4 499.8,29.8 525.7,38.4 525.8,38.4 570.6,23.4 615.3,38.4
	615.3,38.4 660.1,23.4 704.8,38.4 704.9,38.4 749.7,23.4 794.4,38.4 794.5,38.4 839.2,23.4 884,38.4 884,38.4 928.8,23.4
	973.5,38.4 973.6,38.4 999.8,29.7 "></polygon>
    <polygon class="p16981e5f5d2" points="999.4,21.5 973.4,30.2 928.7,15.2 928.6,15.2 883.9,30.2 839.1,15.2 839.1,15.2 794.3,30.2
	749.6,15.2 749.5,15.2 704.7,30.2 660,15.2 660,15.2 615.2,30.2 570.5,15.2 570.4,15.2 525.6,30.2 499.7,21.5 499.7,21.5
	473.8,30.2 429,15.2 429,15.2 384.2,30.2 339.5,15.2 339.4,15.2 294.6,30.2 249.9,15.2 249.9,15.2 205.1,30.2 160.4,15.2
	160.3,15.2 115.5,30.2 70.8,15.2 70.7,15.2 26,30.2 0,21.5 -0.3,21.8 25.9,30.6 25.9,30.6 70.7,15.6 115.5,30.6 115.5,30.6
	160.3,15.6 205,30.6 205.1,30.6 249.9,15.6 294.6,30.6 294.6,30.6 339.4,15.6 384.1,30.6 384.2,30.6 429,15.6 473.7,30.6
	473.8,30.6 499.7,21.9 525.6,30.6 525.6,30.6 570.4,15.6 615.1,30.6 615.2,30.6 660,15.6 704.7,30.6 704.7,30.6 749.5,15.6
	794.2,30.6 794.3,30.6 839.1,15.6 883.8,30.6 883.9,30.6 928.6,15.6 973.4,30.6 973.4,30.6 999.7,21.8 "></polygon>
    <polygon class="p16981e5f5d3" points="999.4,14.2 973.4,22.9 928.7,7.9 928.6,7.8 883.9,22.9 839.1,7.9 839.1,7.8 794.3,22.9 749.6,7.9
	749.5,7.8 704.7,22.9 660,7.9 660,7.8 615.2,22.9 570.5,7.9 570.4,7.8 525.6,22.9 499.7,14.2 499.7,14.2 473.8,22.8 429,7.9
	429,7.8 384.2,22.8 339.5,7.9 339.4,7.8 294.6,22.8 249.9,7.9 249.9,7.8 205.1,22.8 160.4,7.9 160.3,7.8 115.5,22.8 70.8,7.9
	70.7,7.8 26,22.8 0,14.2 -0.3,14.5 25.9,23.2 25.9,23.2 70.7,8.2 115.5,23.2 115.5,23.2 160.3,8.2 205,23.2 205.1,23.2 249.9,8.2
	294.6,23.2 294.6,23.2 339.4,8.2 384.1,23.2 384.2,23.2 429,8.2 473.7,23.2 473.8,23.2 499.7,14.6 525.6,23.2 525.6,23.3 570.4,8.3
	615.1,23.2 615.2,23.3 660,8.3 704.7,23.2 704.7,23.3 749.5,8.3 794.2,23.2 794.3,23.3 839.1,8.3 883.8,23.2 883.9,23.3 928.6,8.3
	973.4,23.2 973.4,23.3 999.7,14.5 "/>
    <polygon class="p16981e5f5d4" points="999.4,7 973.4,15.7 928.7,0.7 928.6,0.6 883.9,15.7 839.1,0.7 839.1,0.6 794.3,15.7 749.6,0.7
	749.5,0.6 704.7,15.7 660,0.7 660,0.6 615.2,15.7 570.5,0.7 570.4,0.6 525.6,15.7 499.7,7 499.7,7 473.8,15.6 429,0.7 429,0.6
	384.2,15.6 339.5,0.7 339.4,0.6 294.6,15.6 249.9,0.7 249.9,0.6 205.1,15.6 160.4,0.7 160.3,0.6 115.5,15.6 70.8,0.7 70.7,0.6
	26,15.6 0,7 -0.3,7.3 25.9,16 25.9,16 70.7,1.1 115.5,16 115.5,16 160.3,1.1 205,16 205.1,16 249.9,1.1 294.6,16 294.6,16
	339.4,1.1 384.1,16 384.2,16 429,1.1 473.7,16 473.8,16 499.7,7.4 525.6,16 525.6,16.1 570.4,1.1 615.1,16 615.2,16.1 660,1.1
	704.7,16 704.7,16.1 749.5,1.1 794.2,16 794.3,16.1 839.1,1.1 883.8,16 883.9,16.1 928.6,1.1 973.4,16 973.4,16.1 999.7,7.3 "></polygon>
    <polygon class="p16981e5f5c7" points="0,103.9 26,112.6 70.8,97.6 115.5,113 160.3,98 205.1,112.6 249.9,98 294.7,113 339.5,97.6 384.3,113
	429.2,97.6 473.9,112.6 499.8,103.9 525.8,112.6 570.6,98 615.4,112.6 660.1,98 704.9,113 749.7,98 794.5,113 839.3,97.6 884.1,113
	928.9,97.6 973.7,112.6 999.7,103.9 999.7,115.3 0,115.3 "></polygon>
</svg>